<svg id="monitor-mobbile" xmlns="http://www.w3.org/2000/svg" width="40" height="40" viewBox="0 0 40 40">
  <path id="Vector" d="M14,.847c-.567-.233-1.067,0-2,0H4c-2.9,0-4,.067-4,3v13c0,.967-.25,1.417,0,2,.517,1.2,2.05,2,4,2h8c2.9,0,5-1.083,5-4v-13C17,1.864,15.221,1.364,14,.847Zm-4,16H6c-.033,0,.033.017,0,0-.25-.017.183.167,0,0-.3-.217-1-.6-1-1a.871.871,0,0,1,1-1h4a.871.871,0,0,1,1,1A.871.871,0,0,1,10,16.847Z" transform="translate(19.996 15.843)" fill="#247cff"/>
  <path id="Vector-2" data-name="Vector" d="M30.646,6.341v4c0,.917-.083,1-1,1h-9c-4.267,0-6,.717-6,5v15a2.3,2.3,0,0,1-2,2h-3a.891.891,0,0,1-1-1c0-.667.333-2,1-2h3v-6h-6c-3.7-.183-7-2.25-7-6v-12c0-3.85,4.133-6,8-6h17C28.5.341,30.646,2.491,30.646,6.341Z" transform="translate(3.354 3.349)" fill="#247cff"/>
  <path id="Vector-3" data-name="Vector" d="M0,0H40V40H0Z" transform="translate(40 40) rotate(180)" fill="#247cff" opacity="0"/>
</svg>
