<svg id="box-tick" xmlns="http://www.w3.org/2000/svg" width="40" height="40" viewBox="0 0 40 40">
  <g id="Group" transform="translate(3.333 3.383)">
    <path id="Vector" d="M23.117,5.467,13.7.4a3.367,3.367,0,0,0-3.183,0l-9.4,5.067A2.2,2.2,0,0,0,0,7.383,2.129,2.129,0,0,0,1.117,9.3l9.417,5.067a3.382,3.382,0,0,0,1.583.4,3.333,3.333,0,0,0,1.583-.4L23.117,9.3a2.16,2.16,0,0,0,1.117-1.917A2.2,2.2,0,0,0,23.117,5.467Z" transform="translate(2.883)" fill="#247cff"/>
    <path id="Vector-2" data-name="Vector" d="M11.867,4.6,3.117.236A2.141,2.141,0,0,0,0,2.152v8.267a3.757,3.757,0,0,0,2.083,3.367l8.75,4.367a2.174,2.174,0,0,0,.967.233,2.327,2.327,0,0,0,1.133-.317,2.16,2.16,0,0,0,1.017-1.833V7.969A3.819,3.819,0,0,0,11.867,4.6Z" transform="translate(0 11.531)" fill="#247cff"/>
    <path id="Vector-3" data-name="Vector" d="M13.933,2.152v4.1a8.957,8.957,0,0,0-2.5-.333A10.025,10.025,0,0,0,5.2,8.1a9.857,9.857,0,0,0-3.767,7.817,9.076,9.076,0,0,0,.317,2.417,1.814,1.814,0,0,1-.733-.283A2.111,2.111,0,0,1,0,16.236V7.969A3.772,3.772,0,0,1,2.067,4.6L10.817.236a2.141,2.141,0,0,1,3.117,1.917Z" transform="translate(16.067 11.531)" fill="#247cff"/>
  </g>
  <path id="Vector-4" data-name="Vector" d="M0,0H40V40H0Z" fill="none" opacity="0"/>
  <path id="Vector-5" data-name="Vector" d="M13.3,2.75A7.483,7.483,0,0,0,2.817,1.65,7.414,7.414,0,0,0,0,7.5a7.5,7.5,0,0,0,1.083,3.867A7.223,7.223,0,0,0,2.767,13.3h.017a7.424,7.424,0,0,0,9.65-.167,7.211,7.211,0,0,0,1.483-1.767A7.5,7.5,0,0,0,15,7.5,7.418,7.418,0,0,0,13.3,2.75ZM11.267,6.567l-4,3.7a1.271,1.271,0,0,1-.85.333,1.236,1.236,0,0,1-.883-.367l-1.85-1.85A1.249,1.249,0,0,1,5.45,6.617l1,1L9.567,4.733a1.258,1.258,0,0,1,1.767.067A1.228,1.228,0,0,1,11.267,6.567Z" transform="translate(23.333 23.367)" fill="#247cff"/>
</svg>
