<svg id="call-calling" xmlns="http://www.w3.org/2000/svg" width="40" height="40" viewBox="0 0 40 40">
  <path id="Vector" d="M7.283,8.583A1.284,1.284,0,0,1,6,7.3,5.8,5.8,0,0,0,4.35,4.283,4.651,4.651,0,0,0,1.283,2.567,1.283,1.283,0,1,1,1.283,0a7.084,7.084,0,0,1,4.95,2.517,7.865,7.865,0,0,1,2.35,4.767A1.3,1.3,0,0,1,7.283,8.583Z" transform="translate(22.083 9.333)" fill="#247cff"/>
  <path id="Vector-2" data-name="Vector" d="M13.283,14.583A1.284,1.284,0,0,1,12,13.3,10.73,10.73,0,0,0,1.283,2.583,1.292,1.292,0,0,1,1.267,0a13.315,13.315,0,0,1,13.3,13.3A1.3,1.3,0,0,1,13.283,14.583Z" transform="translate(22.1 3.333)" fill="#247cff"/>
  <path id="Vector-3" data-name="Vector" d="M15.083,21.583,12,24.667a1.675,1.675,0,0,1-2.35.017c-.183-.183-.367-.35-.55-.533A47.356,47.356,0,0,1,4.45,18.7a29.713,29.713,0,0,1-3.267-5.683A14.309,14.309,0,0,1,0,7.567,8.622,8.622,0,0,1,.6,4.35,7.671,7.671,0,0,1,2.517,1.567,4.883,4.883,0,0,1,5.983,0a3.132,3.132,0,0,1,1.35.3,2.717,2.717,0,0,1,1.117.933l3.867,5.45a5.7,5.7,0,0,1,.667,1.167,2.634,2.634,0,0,1,.233,1.017,2.262,2.262,0,0,1-.35,1.183,5.669,5.669,0,0,1-.933,1.183L10.667,12.55a.892.892,0,0,0-.267.667,1.513,1.513,0,0,0,.05.383c.05.133.1.233.133.333a13.83,13.83,0,0,0,1.55,2.133c.75.867,1.55,1.75,2.417,2.633.167.167.35.333.517.5A1.67,1.67,0,0,1,15.083,21.583Z" transform="translate(3.333 3.333)" fill="#247cff"/>
  <path id="Vector-4" data-name="Vector" d="M20.617,7.15a4.233,4.233,0,0,1-.25,1.417,4.07,4.07,0,0,1-.167.4,6.877,6.877,0,0,1-1.133,1.7,7.514,7.514,0,0,1-2.733,1.967c-.017,0-.033.017-.05.017a8.419,8.419,0,0,1-3.2.617A13.889,13.889,0,0,1,7.65,12.05a29.274,29.274,0,0,1-5.733-3.3C1.267,8.267.617,7.783,0,7.267l5.45-5.45a9.364,9.364,0,0,0,1.233.8c.083.033.183.083.3.133a1.151,1.151,0,0,0,.417.067.917.917,0,0,0,.683-.283L9.35,1.283A5.114,5.114,0,0,1,10.55.35,2.219,2.219,0,0,1,11.733,0,2.66,2.66,0,0,1,12.75.217a6.446,6.446,0,0,1,1.167.65l5.517,3.917A2.528,2.528,0,0,1,20.35,5.85,3.419,3.419,0,0,1,20.617,7.15Z" transform="translate(16 23.4)" fill="#247cff"/>
  <path id="Vector-5" data-name="Vector" d="M0,0H40V40H0Z" transform="translate(40 40) rotate(180)" fill="#247cff" opacity="0"/>
</svg>
