<svg id="calendar-tick" xmlns="http://www.w3.org/2000/svg" width="40" height="40" viewBox="0 0 40 40">
  <path id="Vector" d="M0,0H40V40H0Z" fill="none" opacity="0"/>
  <path id="Vector-2" data-name="Vector" d="M22.852,3.85V1.25a1.25,1.25,0,0,0-2.5,0v2.5H9.519V1.25a1.25,1.25,0,1,0-2.5,0v2.6C2.519,4.267.335,6.95,0,10.933a.837.837,0,0,0,.833.883h28.2a.827.827,0,0,0,.833-.883C29.535,6.95,27.352,4.267,22.852,3.85Z" transform="translate(5.065 2.083)" fill="#247cff"/>
  <path id="Vector-3" data-name="Vector" d="M6.667,0A6.665,6.665,0,0,0,0,6.667,6.535,6.535,0,0,0,.967,10.1a6.641,6.641,0,0,0,11.4,0,6.535,6.535,0,0,0,.967-3.433A6.665,6.665,0,0,0,6.667,0Zm3.45,5.95L6.567,9.233a1.271,1.271,0,0,1-.85.333A1.236,1.236,0,0,1,4.833,9.2L3.183,7.55A1.249,1.249,0,0,1,4.95,5.783l.8.8L8.417,4.117a1.25,1.25,0,0,1,1.7,1.833Z" transform="translate(25 25)" fill="#247cff"/>
  <path id="Vector-4" data-name="Vector" d="M28.333,0H1.667A1.672,1.672,0,0,0,0,1.667V11.933c0,5,2.5,8.333,8.333,8.333H16.55a1.663,1.663,0,0,0,1.583-2.2,9.705,9.705,0,0,1-.617-2.8A9.183,9.183,0,0,1,26.683,6.1a8.182,8.182,0,0,1,1.433.117,1.659,1.659,0,0,0,1.9-1.633v-2.9A1.7,1.7,0,0,0,28.333,0ZM10.35,13.95a1.69,1.69,0,0,1-2.367,0,1.69,1.69,0,0,1,0-2.367,1.72,1.72,0,0,1,.55-.35,1.665,1.665,0,0,1,1.817.35,1.69,1.69,0,0,1,0,2.367Zm0-5.833-.25.2a1.262,1.262,0,0,1-.3.15,1.059,1.059,0,0,1-.3.1,2.5,2.5,0,0,1-.333.033A1.65,1.65,0,0,1,7.5,6.933,1.753,1.753,0,0,1,7.983,5.75,1.682,1.682,0,0,1,9.5,5.3a1.059,1.059,0,0,1,.3.1,1.262,1.262,0,0,1,.3.15l.25.2a1.69,1.69,0,0,1,0,2.367Zm5.833,0a1.667,1.667,0,0,1-2.85-1.183,1.753,1.753,0,0,1,.483-1.183,1.745,1.745,0,0,1,2.367,0,1.69,1.69,0,0,1,0,2.367Z" transform="translate(5 16.4)" fill="#247cff"/>
</svg>
