<svg xmlns="http://www.w3.org/2000/svg" width="40" height="40" viewBox="0 0 40 40">
  <g id="vuesax_bold_convert-3d-cube" data-name="vuesax/bold/convert-3d-cube" transform="translate(-236 -188)">
    <g id="convert-3d-cube" transform="translate(236 188)">
      <path id="Vector" d="M0,0H40V40H0Z" fill="#247cff" opacity="0"/>
      <path id="Vector-2" data-name="Vector" d="M1.244,14.167A1.244,1.244,0,0,1,.177,12.283l1.75-2.917a1.252,1.252,0,0,1,2.15,1.283l-.45.75a10.453,10.453,0,0,0,8.05-10.15,1.25,1.25,0,0,1,2.5,0A12.964,12.964,0,0,1,1.244,14.167Z" transform="translate(23.756 23.75)" fill="#247cff"/>
      <path id="Vector-3" data-name="Vector" d="M1.25,14.167A1.259,1.259,0,0,1,0,12.917,12.939,12.939,0,0,1,12.917,0a1.244,1.244,0,0,1,1.067,1.883l-1.75,2.933a1.249,1.249,0,0,1-2.133-1.3l.45-.75A10.435,10.435,0,0,0,2.5,12.917,1.259,1.259,0,0,1,1.25,14.167Z" transform="translate(2.083 2.083)" fill="#247cff"/>
      <path id="Vector-4" data-name="Vector" d="M12.85,3.042,7.617.225a1.846,1.846,0,0,0-1.767,0L.617,3.042A1.193,1.193,0,0,0,0,4.108,1.193,1.193,0,0,0,.617,5.175L5.85,7.992a1.909,1.909,0,0,0,1.767,0L12.85,5.175a1.193,1.193,0,0,0,.617-1.067A1.247,1.247,0,0,0,12.85,3.042Z" transform="translate(4.933 20.042)" fill="#247cff"/>
      <path id="Vector-5" data-name="Vector" d="M6.583,2.559,1.717.126A1.212,1.212,0,0,0,.55.176,1.22,1.22,0,0,0,0,1.193v4.6A2.052,2.052,0,0,0,1.15,7.659l4.867,2.433a1.459,1.459,0,0,0,.533.117,1.263,1.263,0,0,0,.633-.183A1.2,1.2,0,0,0,7.75,9.009v-4.6A2.061,2.061,0,0,0,6.583,2.559Z" transform="translate(3.333 26.457)" fill="#247cff"/>
      <path id="Vector-6" data-name="Vector" d="M7.183.176A1.208,1.208,0,0,0,6.017.126L1.15,2.559A2.052,2.052,0,0,0,0,4.426v4.6a1.2,1.2,0,0,0,.567,1.017,1.435,1.435,0,0,0,.633.167,1.2,1.2,0,0,0,.533-.133L6.6,7.643A2.052,2.052,0,0,0,7.75,5.776v-4.6A1.189,1.189,0,0,0,7.183.176Z" transform="translate(12.25 26.457)" fill="#247cff"/>
      <path id="Vector-7" data-name="Vector" d="M12.85,3.042,7.617.225a1.846,1.846,0,0,0-1.767,0L.617,3.042A1.193,1.193,0,0,0,0,4.108,1.193,1.193,0,0,0,.617,5.175L5.85,7.992a1.909,1.909,0,0,0,1.767,0L12.85,5.175a1.193,1.193,0,0,0,.617-1.067A1.206,1.206,0,0,0,12.85,3.042Z" transform="translate(21.6 3.342)" fill="#247cff"/>
      <path id="Vector-8" data-name="Vector" d="M6.583,2.559,1.717.126A1.212,1.212,0,0,0,.55.176,1.22,1.22,0,0,0,0,1.193v4.6A2.052,2.052,0,0,0,1.15,7.659l4.867,2.433a1.2,1.2,0,0,0,.533.133,1.263,1.263,0,0,0,.633-.183A1.2,1.2,0,0,0,7.75,9.026v-4.6A2.067,2.067,0,0,0,6.583,2.559Z" transform="translate(20 9.741)" fill="#247cff"/>
      <path id="Vector-9" data-name="Vector" d="M7.183.176A1.208,1.208,0,0,0,6.017.126L1.15,2.559A2.052,2.052,0,0,0,0,4.426v4.6a1.2,1.2,0,0,0,.567,1.017,1.263,1.263,0,0,0,.633.183,1.2,1.2,0,0,0,.533-.133L6.6,7.659A2.089,2.089,0,0,0,7.75,5.793v-4.6A1.2,1.2,0,0,0,7.183.176Z" transform="translate(28.917 9.741)" fill="#247cff"/>
    </g>
  </g>
</svg>
