<svg xmlns="http://www.w3.org/2000/svg" width="40" height="40" viewBox="0 0 40 40">
  <g id="vuesax_bold_messages" data-name="vuesax/bold/messages" transform="translate(-556 -316)">
    <g id="messages" transform="translate(556 316)">
      <path id="Vector" d="M0,0H40V40H0Z" fill="none" opacity="0"/>
      <path id="Vector-2" data-name="Vector" d="M18.65,0H7.983a10.108,10.108,0,0,0-1.25.067C2.25.45,0,3.1,0,7.983V14.65c0,6.667,2.667,7.983,7.983,7.983H8.65a1.539,1.539,0,0,1,1.067.533l2,2.667a1.886,1.886,0,0,0,3.2,0l2-2.667a1.342,1.342,0,0,1,1.067-.533h.667c4.883,0,7.533-2.233,7.917-6.733a10.108,10.108,0,0,0,.067-1.25V7.983Q26.633.008,18.65,0ZM7.5,13.333a1.667,1.667,0,1,1,1.667-1.667A1.661,1.661,0,0,1,7.5,13.333Zm5.817,0a1.667,1.667,0,1,1,1.667-1.667A1.661,1.661,0,0,1,13.317,13.333Zm5.833,0a1.667,1.667,0,1,1,1.667-1.667A1.661,1.661,0,0,1,19.15,13.333Z" transform="translate(3.333 10)" fill="#247cff"/>
      <path id="Vector-3" data-name="Vector" d="M25.586,7.983V14.65c0,3.333-1.033,5.6-3.1,6.85a.729.729,0,0,1-1.083-.683l.017-6.167c0-6.667-3.817-10.483-10.483-10.483L.786,4.183A.729.729,0,0,1,.1,3.1C1.352,1.033,3.619,0,6.936,0H17.6Q25.577,0,25.586,7.983Z" transform="translate(11.048 3.333)" fill="#247cff"/>
    </g>
  </g>
</svg>
