<svg id="Paper_Negative" data-name="Paper Negative" xmlns="http://www.w3.org/2000/svg" width="26" height="30" viewBox="0 0 26 30">
  <g id="Paper_Negative-2" data-name="Paper Negative">
    <path id="Paper_Negative-3" data-name="Paper Negative" d="M7.148,30A7.116,7.116,0,0,1,0,22.935V6.765A6.805,6.805,0,0,1,6.829,0h8.087a.694.694,0,0,1,.7.69V5.52a5.06,5.06,0,0,0,5.059,5.01c.647,0,1.214,0,1.716.009.392,0,.735.005,1.039.005.216,0,.494,0,.8-.007.35,0,.743-.008,1.1-.008a.679.679,0,0,1,.681.675v12.06A6.783,6.783,0,0,1,19.185,30Zm.7-13.515a1.124,1.124,0,0,0,1.136,1.11h7.48a1.117,1.117,0,1,0,0-2.234H8.98A1.132,1.132,0,0,0,7.844,16.485ZM20.871,8.339a3.055,3.055,0,0,1-3.054-3.025V1.359a.724.724,0,0,1,1.244-.5c1.638,1.686,4.5,4.633,6.1,6.28a.713.713,0,0,1-.519,1.211l-.987,0C22.672,8.351,21.657,8.347,20.871,8.339Z" fill="#247cff"/>
  </g>
</svg>
