<svg xmlns="http://www.w3.org/2000/svg" xmlns:xlink="http://www.w3.org/1999/xlink" width="68" height="68" viewBox="0 0 68 68">
  <defs>
    <clipPath id="clip-path">
      <rect id="Rectangle_196" data-name="Rectangle 196" width="54" height="54" fill="#29c875"/>
    </clipPath>
  </defs>
  <g id="Group_4555" data-name="Group 4555" transform="translate(-452 -883)">
    <circle id="Ellipse_18" data-name="Ellipse 18" cx="34" cy="34" r="34" transform="translate(452 883)" fill="#00cf61" opacity="0.1"/>
    <g id="Group_2182" data-name="Group 2182" transform="translate(387.876 123.098)">
      <g id="Group_2181" data-name="Group 2181" transform="translate(71.124 766.902)" clip-path="url(#clip-path)">
        <g id="Group_2180" data-name="Group 2180" transform="translate(5.251 5.284)">
          <path id="Path_3099" data-name="Path 3099" d="M95.095,789.679v13.437H93.611V792.671H89.12v10.437H87.614v-7.429H83.108v7.437h-5.97V788.177h23.918v14.932H99.606v-13.43Zm-16.474,4.435h7.441v-1.445H78.621Zm1.45-2.988v-1.444H78.624v1.444Zm1.546-.014h1.461v-1.438H81.617Zm4.459.016v-1.453H84.631v1.453Z" transform="translate(-74.104 -771.68)" fill="#29c875"/>
          <path id="Path_3100" data-name="Path 3100" d="M104.241,781.466h-3.373v-3.885c.477-.124.974-.238,1.457-.39a.625.625,0,0,0,.339-.305c.235-.508.455-1.023.643-1.55a.751.751,0,0,0-.037-.537c-.22-.428-.488-.83-.71-1.2l2.375-2.386c.366.219.795.5,1.245.732a.69.69,0,0,0,.5.02c.438-.161.845-.418,1.291-.536a.811.811,0,0,0,.666-.757c.062-.383.184-.756.284-1.153h3.338c.1.409.219.838.31,1.273a.654.654,0,0,0,.538.6,2.244,2.244,0,0,1,.823.319,1.208,1.208,0,0,0,1.662-.1,4.488,4.488,0,0,1,.646-.392l2.371,2.395c-.2.33-.425.737-.683,1.124a.587.587,0,0,0-.042.677c.231.456.38.954.606,1.414a.832.832,0,0,0,.435.384c.454.152.926.247,1.4.366v3.333c-.485.124-.969.23-1.44.38a.688.688,0,0,0-.373.327c-.239.506-.455,1.024-.646,1.549a.682.682,0,0,0,.032.5c.231.44.5.856.74,1.253l-2.365,2.374c-.391-.235-.806-.509-1.245-.735a.757.757,0,0,0-.535-.021,7.541,7.541,0,0,1-1.029.432c-.675.116-.892.541-.994,1.135-.074.44-.208.868-.326,1.349a6.027,6.027,0,0,0-3.776-.255v-3.6a6.731,6.731,0,0,0,8.355-3.561,6.736,6.736,0,1,0-12.4-5.26A6.538,6.538,0,0,0,104.241,781.466Z" transform="translate(-76.849 -769.521)" fill="#29c875"/>
          <path id="Path_3101" data-name="Path 3101" d="M73.708,802.708v-.5q0-7.518,0-15.036a2.233,2.233,0,0,1,2.415-2.42h25.155a2.233,2.233,0,0,1,2.415,2.421c0,1.342-.005,2.686.006,4.028a.593.593,0,0,1-.3.568c-.4.269-.76.593-1.174.925-.01-.136-.027-.265-.028-.394,0-1.436,0-2.872,0-4.309a1.55,1.55,0,0,0-1.725-1.743q-11.782,0-23.563,0a1.548,1.548,0,0,0-1.7,1.716q0,7.073,0,14.145v.594Z" transform="translate(-73.707 -771.284)" fill="#29c875"/>
          <path id="Path_3102" data-name="Path 3102" d="M73.709,806.81h25c-.082.106-.14.182-.2.256-.669.82-1.334,1.644-2.016,2.452a.73.73,0,0,1-.469.264q-10.072.02-20.143.007a2.214,2.214,0,0,1-2.167-2.149C73.7,807.378,73.709,807.116,73.709,806.81Z" transform="translate(-73.707 -773.836)" fill="#29c875"/>
          <path id="Path_3103" data-name="Path 3103" d="M114.919,797.759a4.5,4.5,0,1,1-4.453-4.527A4.484,4.484,0,0,1,114.919,797.759Z" transform="translate(-77.434 -772.265)" fill="#29c875"/>
          <path id="Path_3104" data-name="Path 3104" d="M111.122,785.124c-.474-.086-.957-.137-1.418-.265a2.156,2.156,0,0,1-1.417-1.017,7.074,7.074,0,0,0-1.4-1.333,1.875,1.875,0,0,1-.488-.523,5.235,5.235,0,1,1,9.922-3.077A5.282,5.282,0,0,1,111.122,785.124Zm.045-9.046a3.748,3.748,0,1,0,3.75,3.757A3.783,3.783,0,0,0,111.167,776.077Z" transform="translate(-77.431 -770.104)" fill="#29c875"/>
          <path id="Path_3105" data-name="Path 3105" d="M117.771,807.547a10.79,10.79,0,0,1,4.07,9.806h-2.2v-5.947h-1.5v5.933h-3.928c.071-.141.131-.277.2-.406.694-1.218,1.384-2.438,2.092-3.648a.7.7,0,0,0,.03-.763c-.514-.992-.53-1.028.3-1.773a2.112,2.112,0,0,0,.64-1.394C117.558,808.787,117.661,808.22,117.771,807.547Z" transform="translate(-78.393 -773.921)" fill="#29c875"/>
          <path id="Path_3106" data-name="Path 3106" d="M102.89,811.406h-1.5v5.952H99.2c-.795-2.933,1.313-8.066,4.037-9.725.12.685.272,1.349.34,2.019a1.655,1.655,0,0,0,.574,1.073c.826.8.826.811.31,1.817a.656.656,0,0,0,.014.723c.786,1.34,1.548,2.694,2.347,4.091H102.89Z" transform="translate(-76.637 -773.931)" fill="#29c875"/>
          <path id="Path_3107" data-name="Path 3107" d="M84.743,814.864v-2.939H96.787l-.762,2.939Z" transform="translate(-74.983 -774.428)" fill="#29c875"/>
          <path id="Path_3108" data-name="Path 3108" d="M113.332,805.455l-2.617,9.422-.105.008-2.618-9.425A10.141,10.141,0,0,1,113.332,805.455Z" transform="translate(-77.673 -773.638)" fill="#29c875"/>
          <path id="Path_3109" data-name="Path 3109" d="M95.367,817v1.441H79.687V817Z" transform="translate(-74.398 -775.015)" fill="#29c875"/>
          <path id="Path_3110" data-name="Path 3110" d="M99.178,791.564h1.442v11.93H99.178Z" transform="translate(-76.653 -772.072)" fill="#29c875"/>
          <path id="Path_3111" data-name="Path 3111" d="M92.4,794.954h1.441v8.932H92.4Z" transform="translate(-75.869 -772.464)" fill="#29c875"/>
          <path id="Path_3112" data-name="Path 3112" d="M109.262,817.157l-.6-1.042c-.589-1.028-1.169-2.06-1.77-3.079a.6.6,0,0,1-.034-.679c.226-.42.6-.9.542-1.3-.055-.376-.544-.744-.917-1.007-.9-.634-.784-1.628-.987-2.511-.018-.076-.015-.156-.029-.232-.167-.941-.153-.963.823-1.223l3.063,11.032Z" transform="translate(-77.372 -773.752)" fill="#29c875"/>
          <path id="Path_3113" data-name="Path 3113" d="M115.209,806.087a.462.462,0,0,1,.109-.006c.861.333.86.333.707,1.261a12.976,12.976,0,0,0-.205,1.385,1.773,1.773,0,0,1-.7,1.21c-.371.354-.936.7-1.013,1.116s.363.913.561,1.381a.519.519,0,0,1,.043.379c-.813,1.451-1.64,2.893-2.565,4.3Z" transform="translate(-78.154 -773.751)" fill="#29c875"/>
          <path id="Path_3114" data-name="Path 3114" d="M85.613,798.345h1.442v5.934H85.613Z" transform="translate(-75.084 -772.856)" fill="#29c875"/>
          <path id="Path_3115" data-name="Path 3115" d="M107.063,803.832l-1.1.379v-1.324Z" transform="translate(-77.439 -773.382)" fill="#29c875"/>
          <path id="Path_3116" data-name="Path 3116" d="M113.812,780.221a2.247,2.247,0,1,1-2.258-2.248A2.229,2.229,0,0,1,113.812,780.221Z" transform="translate(-77.827 -770.499)" fill="#29c875"/>
        </g>
      </g>
    </g>
  </g>
</svg>
