<svg xmlns="http://www.w3.org/2000/svg" width="26" height="26" viewBox="0 0 26 26">
  <g id="Group_99904" data-name="Group 99904" transform="translate(-24 -131)">
    <circle id="Ellipse_749" data-name="Ellipse 749" cx="13" cy="13" r="13" transform="translate(24 131)" fill="#e8f2ff"/>
    <g id="call" transform="translate(28 135)">
      <path id="Union_29" data-name="Union 29" d="M8.934,14.132a12.976,12.976,0,0,1-2.52-1.453c-.25-.182-.494-.367-.736-.563a15.775,15.775,0,0,1-1.434-1.257L4,10.627a20.582,20.582,0,0,1-2.047-2.4A13.1,13.1,0,0,1,.52,5.728,6.249,6.249,0,0,1,0,3.327,3.743,3.743,0,0,1,.264,1.915,3.327,3.327,0,0,1,1.1.69,2.157,2.157,0,0,1,2.631,0a1.389,1.389,0,0,1,.594.133,1.2,1.2,0,0,1,.49.411l1.7,2.395a2.563,2.563,0,0,1,.3.517,1.166,1.166,0,0,1,.1.448.964.964,0,0,1-.154.517,2.451,2.451,0,0,1-.41.521l-.555.58a.384.384,0,0,0-.117.293.707.707,0,0,0,.021.168c.02.061.041.105.055.147a6.263,6.263,0,0,0,.686.94c.328.38.682.769,1.061,1.157.072.073.154.146.229.219.176.173.893.728,1.373,1.205a4.386,4.386,0,0,0,.514.331c.033.014.078.037.133.06a.555.555,0,0,0,.178.027.4.4,0,0,0,.3-.123l.559-.554a2.407,2.407,0,0,1,.529-.411,1,1,0,0,1,.521-.15,1.147,1.147,0,0,1,.447.1,2.8,2.8,0,0,1,.514.283l2.426,1.723a1.1,1.1,0,0,1,.4.471,1.489,1.489,0,0,1,.119.572,1.813,1.813,0,0,1-.111.621c-.021.06-.045.119-.072.179a3.126,3.126,0,0,1-.5.749,3.327,3.327,0,0,1-1.205.864c-.006,0-.016.009-.02.009a3.759,3.759,0,0,1-1.408.271A6.078,6.078,0,0,1,8.934,14.132Z" transform="translate(1.668 1.666)" fill="#247cff"/>
      <path id="Vector" d="M0,0H18V18H0Z" transform="translate(18 18) rotate(180)" fill="none" opacity="0"/>
    </g>
  </g>
</svg>
