<svg xmlns="http://www.w3.org/2000/svg" width="395.773" height="399.741" viewBox="0 0 395.773 399.741">
  <path id="Union_10" data-name="Union 10" d="M-10374.973,705.466a10.675,10.675,0,0,1-9.027,4.971,10.689,10.689,0,0,1-10.686-10.7,10.7,10.7,0,0,1,.522-3.312A195.47,195.47,0,0,1-10497,524.24c0-102.231,78.475-186.135,178.471-194.767a10.691,10.691,0,0,1,10.618-9.473,10.692,10.692,0,0,1,10.515,8.783c106.077,2.184,191.4,88.856,191.4,195.456a196.945,196.945,0,0,1-2.657,32.311,10.7,10.7,0,0,1,7.431,10.19,10.692,10.692,0,0,1-10.687,10.7,10.762,10.762,0,0,1-1.386-.089,195.578,195.578,0,0,1-188.2,142.392A194.981,194.981,0,0,1-10374.973,705.466Zm34.474,8.343a194.8,194.8,0,0,0,39,3.933,194.772,194.772,0,0,0,39-3.933,192.481,192.481,0,0,0,36.32-11.273,193.458,193.458,0,0,0,32.867-17.84,194.879,194.879,0,0,0,28.639-23.631,194.733,194.733,0,0,0,23.63-28.639,193.485,193.485,0,0,0,17.841-32.867,192.511,192.511,0,0,0,7.95-22.654,10.7,10.7,0,0,1-7.345-10.165,10.691,10.691,0,0,1,10.686-10.7,10.8,10.8,0,0,1,1.3.078A195.4,195.4,0,0,0-10108,524.24a194.793,194.793,0,0,0-3.933-39,192.339,192.339,0,0,0-11.272-36.32,193.485,193.485,0,0,0-17.841-32.867,194.735,194.735,0,0,0-23.63-28.639,194.884,194.884,0,0,0-28.639-23.631,193.458,193.458,0,0,0-32.867-17.84,192.486,192.486,0,0,0-36.32-11.275,194.717,194.717,0,0,0-34.725-3.884,10.692,10.692,0,0,1-10.685,10.607,10.693,10.693,0,0,1-10.659-9.908,193.664,193.664,0,0,0-21.929,3.185,192.509,192.509,0,0,0-36.32,11.275,193.524,193.524,0,0,0-32.866,17.84,194.884,194.884,0,0,0-28.639,23.631,194.926,194.926,0,0,0-23.631,28.639,193.412,193.412,0,0,0-17.84,32.867,192.482,192.482,0,0,0-11.272,36.32,194.722,194.722,0,0,0-3.934,39,194.729,194.729,0,0,0,3.934,39,192.481,192.481,0,0,0,11.272,36.32,193.412,193.412,0,0,0,17.84,32.867,194.925,194.925,0,0,0,23.631,28.639,194.879,194.879,0,0,0,28.639,23.631c5.269,3.56,10.724,6.863,16.321,9.889a10.683,10.683,0,0,1,9.364-5.54,10.691,10.691,0,0,1,10.685,10.7,10.684,10.684,0,0,1-.746,3.936A192.55,192.55,0,0,0-10340.5,713.809Zm11.215-110.763c0-.316.014-.627.04-.935A82.606,82.606,0,0,1-10384,524.319a82.538,82.538,0,0,1,82.5-82.578,82.114,82.114,0,0,1,52.24,18.662,10.648,10.648,0,0,1,6.752-2.4,10.689,10.689,0,0,1,10.686,10.7,10.665,10.665,0,0,1-2.816,7.237A82.242,82.242,0,0,1-10219,524.319a82.539,82.539,0,0,1-82.5,82.578q-3.543,0-7.015-.3a10.69,10.69,0,0,1-10.082,7.139A10.691,10.691,0,0,1-10329.284,603.046Zm21.373,0a10.683,10.683,0,0,1-.166,1.873q3.28.265,6.575.266a81.3,81.3,0,0,0,16.286-1.644,80.356,80.356,0,0,0,15.161-4.71,80.618,80.618,0,0,0,13.723-7.455,81.568,81.568,0,0,0,11.96-9.876,81.746,81.746,0,0,0,9.866-11.968,81.113,81.113,0,0,0,7.447-13.736,80.569,80.569,0,0,0,4.708-15.177,81.653,81.653,0,0,0,1.641-16.3,81.633,81.633,0,0,0-1.641-16.3,80.509,80.509,0,0,0-4.708-15.177,81.113,81.113,0,0,0-7.447-13.736q-.684-1.012-1.4-2a10.617,10.617,0,0,1-6.6,2.289,10.692,10.692,0,0,1-10.687-10.7,10.662,10.662,0,0,1,2.692-7.1q-2.817-2.3-5.827-4.334a80.618,80.618,0,0,0-13.723-7.455,80.171,80.171,0,0,0-15.161-4.713,81.5,81.5,0,0,0-16.286-1.641,81.5,81.5,0,0,0-16.283,1.641,80.1,80.1,0,0,0-15.16,4.713,80.718,80.718,0,0,0-13.726,7.455,81.413,81.413,0,0,0-11.955,9.874,81.284,81.284,0,0,0-9.868,11.971,80.838,80.838,0,0,0-7.447,13.736,80.367,80.367,0,0,0-4.708,15.177,81.634,81.634,0,0,0-1.642,16.3,81.654,81.654,0,0,0,1.642,16.3,80.427,80.427,0,0,0,4.708,15.177,80.838,80.838,0,0,0,7.447,13.736,81.263,81.263,0,0,0,9.868,11.968,81.426,81.426,0,0,0,11.955,9.876,80.718,80.718,0,0,0,13.726,7.455q1.972.834,3.99,1.565a10.7,10.7,0,0,1,10.356-8.048A10.694,10.694,0,0,1-10307.911,603.046Z" transform="translate(10497 -320)" fill="rgba(36,124,255,0.2)"/>
</svg>
