<svg xmlns="http://www.w3.org/2000/svg" xmlns:xlink="http://www.w3.org/1999/xlink" width="68" height="68" viewBox="0 0 68 68">
  <defs>
    <clipPath id="clip-path">
      <rect id="Rectangle_719" data-name="Rectangle 719" width="68" height="68" fill="none"/>
    </clipPath>
    <clipPath id="clip-path-4">
      <rect id="Rectangle_718" data-name="Rectangle 718" width="58" height="58" transform="translate(5 5)" fill="none"/>
    </clipPath>
  </defs>
  <g id="Group_4876" data-name="Group 4876" transform="translate(69)">
    <g id="Group_4874" data-name="Group 4874" transform="translate(-69)" clip-path="url(#clip-path)">
      <g id="Group_4871" data-name="Group 4871">
        <g id="Group_4870" data-name="Group 4870" clip-path="url(#clip-path)">
          <g id="Group_4869" data-name="Group 4869" opacity="0.1" style="mix-blend-mode: normal;isolation: isolate">
            <g id="Group_4868" data-name="Group 4868">
              <g id="Group_4867" data-name="Group 4867" clip-path="url(#clip-path)">
                <path id="Path_4530" data-name="Path 4530" d="M34,0A34,34,0,1,1,0,34,34,34,0,0,1,34,0" fill="#e60019"/>
              </g>
            </g>
          </g>
        </g>
      </g>
      <g id="Group_4873" data-name="Group 4873">
        <g id="Group_4872" data-name="Group 4872" clip-path="url(#clip-path-4)">
          <path id="Path_4531" data-name="Path 4531" d="M41.39,13.439a12.066,12.066,0,0,0-2.212.2,8.971,8.971,0,0,1,1.014,2.7,9.1,9.1,0,1,1-7.75,10.725,9.083,9.083,0,0,1-2.879-.114A11.934,11.934,0,1,0,41.39,13.439" fill="#e9363d"/>
          <path id="Path_4532" data-name="Path 4532" d="M54.357,39.538a4.055,4.055,0,0,0-5.518-.845l-4.728,3.165A3.9,3.9,0,0,0,40.677,39.8H37.3a9.23,9.23,0,0,0-14.442,2.335l-.634.387-.163-.48a1.243,1.243,0,0,0-1.578-.773L13.63,43.612a1.244,1.244,0,0,0-.775,1.578L17,57.325a1.243,1.243,0,0,0,1.578.775l6.857-2.347a1.244,1.244,0,0,0,.773-1.582c0-.012-.008-.025-.013-.037L37.08,53.8A14.14,14.14,0,0,0,45.3,51.165l8.206-5.836a4.054,4.054,0,0,0,.957-5.653q-.051-.072-.105-.141Zm-35.4,15.807-3.346-9.784,4.506-1.539c.485,1.42,2.844,8.318,3.345,9.784Zm33.11-12.04-8.206,5.837a11.658,11.658,0,0,1-6.8,2.171h-.039l-11.664.361-2.307-6.745,1.4-.858a1.264,1.264,0,0,0,.466-.512,6.75,6.75,0,0,1,10.968-1.665,1.26,1.26,0,0,0,.9.389h3.884a1.408,1.408,0,1,1,.075,2.815H33.658a1.243,1.243,0,1,0,0,2.486h7.011a3.9,3.9,0,0,0,3.786-2.974l5.779-3.857.021-.014a1.571,1.571,0,0,1,1.813,2.566Z" fill="#e9363d"/>
          <path id="Path_4533" data-name="Path 4533" d="M37.2,18.5l-.858-.5a5.645,5.645,0,0,0,0-1.191l.858-.5a1.36,1.36,0,0,0,.5-1.857l-.972-1.681a1.358,1.358,0,0,0-1.854-.5h0l-.858.5a5.656,5.656,0,0,0-1.032-.6v-.988a1.36,1.36,0,0,0-1.359-1.361H29.677a1.358,1.358,0,0,0-1.359,1.359v.99a5.706,5.706,0,0,0-1.031.6l-.858-.5a1.358,1.358,0,0,0-1.856.5h0L23.6,14.454a1.36,1.36,0,0,0,.5,1.857l.858.5a5.645,5.645,0,0,0,0,1.191l-.858.5a1.359,1.359,0,0,0-.5,1.856l.971,1.682a1.36,1.36,0,0,0,1.857.5l.858-.5a5.706,5.706,0,0,0,1.031.6v.99a1.358,1.358,0,0,0,1.359,1.359h1.942a1.361,1.361,0,0,0,1.359-1.359v-.99a5.656,5.656,0,0,0,1.032-.6l.858.5a1.36,1.36,0,0,0,1.856-.5l.972-1.682A1.359,1.359,0,0,0,37.2,18.5Zm-6.55,2.1a3.193,3.193,0,1,1,3.194-3.194A3.194,3.194,0,0,1,30.646,20.6" fill="#e9363d"/>
          <path id="Path_4534" data-name="Path 4534" d="M39.64,19.608h7.985v.016a12.106,12.106,0,0,1-.8,1.162H44.695a2.766,2.766,0,0,1,.6,1.254h2.275c.028.006.042.016.042.033q-.765,1.146-.781,1.145H45.351a3.381,3.381,0,0,1-.565,1.419,3.462,3.462,0,0,1-1.3,1.088,5.152,5.152,0,0,1-2.225.557V26.3q0,.084,4.807,5.7H43.948q-4.682-5.454-4.682-5.479v-1.1l.017-.042a7.069,7.069,0,0,0,.971.057q2.622,0,3.262-1.7a1.384,1.384,0,0,0,.1-.515H38.868c-.022,0-.034-.01-.034-.033.527-.764.794-1.145.806-1.145h3.769v-.017A2.209,2.209,0,0,0,42.155,21a3.884,3.884,0,0,0-1.2-.217H38.851v-.041q.765-1.137.789-1.137" fill="#e9363d"/>
        </g>
      </g>
    </g>
  </g>
</svg>
