<svg xmlns="http://www.w3.org/2000/svg" xmlns:xlink="http://www.w3.org/1999/xlink" width="68" height="68" viewBox="0 0 68 68">
  <defs>
    <clipPath id="clip-path">
      <rect id="Rectangle_197" data-name="Rectangle 197" width="54" height="54" fill="#35aee3"/>
    </clipPath>
  </defs>
  <g id="Group_4554" data-name="Group 4554" transform="translate(-717 -883)">
    <circle id="Ellipse_18" data-name="Ellipse 18" cx="34" cy="34" r="34" transform="translate(717 883)" fill="#08abff" opacity="0.1"/>
    <g id="Group_2185" data-name="Group 2185" transform="translate(525.456 -85.186)">
      <g id="Group_2184" data-name="Group 2184" transform="translate(198.544 975.186)" clip-path="url(#clip-path)">
        <g id="Group_2183" data-name="Group 2183" transform="translate(4.603 4.616)">
          <path id="Path_3117" data-name="Path 3117" d="M203.178,1001.035a1.6,1.6,0,0,1,1.67-.972q20.743.024,41.485,0a1.493,1.493,0,0,1,1.638,1.655q-.054,7.976,0,15.952a1.494,1.494,0,0,1-1.638,1.656q-20.742-.033-41.484,0a1.606,1.606,0,0,1-1.671-.972Zm18.384,9.8c0,1.1-.015,2.134,0,3.167a1.306,1.306,0,1,0,2.607-.031q0-4.283,0-8.566a1.32,1.32,0,0,0-1.264-1.4,1.337,1.337,0,0,0-1.343,1.37c-.019.786,0,1.574-.006,2.359v.455h-3.427c0-.968.012-1.9,0-2.829a1.31,1.31,0,1,0-2.619.011q-.013,4.328,0,8.654a1.308,1.308,0,1,0,2.616.011c.019-.9.006-1.806.006-2.709v-.494h3.428Zm9.985.1c.113-.062.162-.089.212-.114a3.576,3.576,0,0,0,2.088-3.607,3.531,3.531,0,0,0-3.154-3.13,21.668,21.668,0,0,0-2.7-.071,1.337,1.337,0,0,0-1.461,1.467c0,1.384,0,2.768,0,4.151,0,1.458-.008,2.914,0,4.37a1.3,1.3,0,0,0,1.717,1.294,1.36,1.36,0,0,0,.9-1.44c0-.526,0-1.053,0-1.691l.466.526c.655.743,1.3,1.493,1.967,2.227a1.232,1.232,0,0,0,1.343.39,1.252,1.252,0,0,0,.923-1.053,1.369,1.369,0,0,0-.421-1.188C232.81,1012.368,232.2,1011.669,231.547,1010.933Z" transform="translate(-203.178 -979.964)" fill="#35aee3"/>
          <path id="Path_3118" data-name="Path 3118" d="M208.19,1024.875a1.532,1.532,0,0,1-.966-1.712c.032-.343,0-.691,0-1.06h5.177c.365,1.332.081,2.214-.893,2.772Z" transform="translate(-203.204 -980.107)" fill="#35aee3"/>
          <path id="Path_3119" data-name="Path 3119" d="M239.881,1024.875a1.532,1.532,0,0,1-.966-1.712c.033-.343,0-.691,0-1.06H244.1c.364,1.332.081,2.214-.894,2.772Z" transform="translate(-203.411 -980.107)" fill="#35aee3"/>
          <path id="Path_3120" data-name="Path 3120" d="M226.008,997.364H207.729a7.518,7.518,0,0,1,3.611-7.681,7.437,7.437,0,0,0,11.017.005C224.2,990.7,226.4,993.095,226.008,997.364Z" transform="translate(-203.207 -979.896)" fill="#35aee3"/>
          <path id="Path_3121" data-name="Path 3121" d="M230.11,997.345c.631-1.583,1.247-3.132,1.865-4.68q.6-1.5,1.2-2.99a1.356,1.356,0,0,1,1.515-1.041h9.261a1.314,1.314,0,0,1,1.321,1.941c-.855,2.16-1.722,4.316-2.58,6.475-.08.2-.158.333-.425.332q-6.007-.016-12.014-.011A1.153,1.153,0,0,1,230.11,997.345Z" transform="translate(-203.353 -979.889)" fill="#35aee3"/>
          <path id="Path_3122" data-name="Path 3122" d="M212.071,984.616a4.809,4.809,0,1,1,4.774,4.831A4.795,4.795,0,0,1,212.071,984.616Z" transform="translate(-203.236 -979.832)" fill="#35aee3"/>
          <path id="Path_3123" data-name="Path 3123" d="M229.35,1006.685c.4,0,.795-.03,1.178.007a.984.984,0,0,1,.891.961,1,1,0,0,1-.926.931c-.371.031-.746.006-1.143.006Z" transform="translate(-203.348 -980.007)" fill="#35aee3"/>
        </g>
      </g>
    </g>
  </g>
</svg>
