<svg id="Group_4861" data-name="Group 4861" xmlns="http://www.w3.org/2000/svg" xmlns:xlink="http://www.w3.org/1999/xlink" width="323.301" height="69" viewBox="0 0 323.301 69">
  <defs>
    <clipPath id="clip-path">
      <rect id="Rectangle_715" data-name="Rectangle 715" width="323.301" height="69" fill="none"/>
    </clipPath>
  </defs>
  <path id="Path_4492" data-name="Path 4492" d="M0,63.418l4.41,1.413V27.817L0,25.866Z" fill="#12233b"/>
  <path id="Path_4493" data-name="Path 4493" d="M10.113,27.819,35.945,16.026l-.151,29.562-25.681,12V46.306l13.355-5.658v-6.06L10.113,40.246Zm20.554,7.256-1.837-.34v2.311ZM27.8,37.546V34.635L24.5,34.474l.009,5.8Z" fill="#12233b"/>
  <path id="Path_4494" data-name="Path 4494" d="M10.112,64.315V69L35.92,57.517l.025-4.993Z" fill="#12233b"/>
  <g id="Group_4860" data-name="Group 4860">
    <g id="Group_4859" data-name="Group 4859" clip-path="url(#clip-path)">
      <path id="Path_4495" data-name="Path 4495" d="M14.368,7.614,2.583,25.573C6.452,19.027,12.432,8.212,13.41,4.092Z" fill="#12233b"/>
      <path id="Path_4496" data-name="Path 4496" d="M21.708,5.728,2.583,25.573C8.851,17.47,20.694,3.48,21.081.1Z" fill="#12233b"/>
      <path id="Path_4497" data-name="Path 4497" d="M28.034,6.579,2.583,25.573C11.155,17.533,27.406,4.244,27.9,0Z" fill="#12233b"/>
      <path id="Path_4498" data-name="Path 4498" d="M34.257,10.068,2.583,25.573C13.517,18.758,33.112,5.962,34.088,2.383c-.072,1.87.241,5.815.169,7.685" fill="#12233b"/>
      <path id="Path_4499" data-name="Path 4499" d="M9.7,10.244,2.583,25.574A166.615,166.615,0,0,0,8.74,6.723Z" fill="#12233b"/>
      <path id="Path_4500" data-name="Path 4500" d="M52.427,4.08H73.37V9.24H57.586v9.349H73.37v5.16H57.586v12.93H73.37v5.16H52.427Zm35.13,0h9.157q10.883,0,16.188,5.746a18.824,18.824,0,0,1,5.312,13.133,18.49,18.49,0,0,1-5.484,13.163q-5.493,5.722-15.956,5.717H87.557Zm5.16,5.038V36.679h.294a53.256,53.256,0,0,0,8.63-.516,14.262,14.262,0,0,0,5.494-2.267,12.518,12.518,0,0,0,4.138-4.623,13.3,13.3,0,0,0,1.538-6.345,13.474,13.474,0,0,0-2.449-7.87,12.172,12.172,0,0,0-5.867-4.726,28.151,28.151,0,0,0-9.177-1.214ZM132.036,4.08h5.16V27.289q0,5.145,2.48,7.973a8.852,8.852,0,0,0,7.011,2.813,9.279,9.279,0,0,0,7-2.59q2.5-2.595,2.508-7.305V4.08h5.16V27.816q0,6.936-3.955,11.088a13.908,13.908,0,0,1-10.543,4.149,14.281,14.281,0,0,1-10.775-4.209q-4.053-4.2-4.048-12.414Zm44.6-1.518,27.925,28.673V4.08h5.16V43.6L181.8,15.017V41.839h-5.16ZM225.063,4.08h20.944V9.24H230.223v9.349h15.784v5.16H230.223v12.93h15.784v5.16H225.063Zm33.613,0h5.677l8.427,13.8,8.368-13.8H286.9l-11.25,18.556,11.554,19.2h-5.676L272.78,27.381l-8.771,14.458h-5.758L269.9,22.625Zm40.706,0h23.19V9.24h-9.045v32.6h-5.161V9.24h-8.984Z" fill="#12233b"/>
      <path id="Path_4501" data-name="Path 4501" d="M51.781,62.854l.556-1.4a3.811,3.811,0,0,0,1.062.522,3.7,3.7,0,0,0,1.138.209,2.058,2.058,0,0,0,1.432-.487,1.6,1.6,0,0,0,.54-1.241,1.948,1.948,0,0,0-.3-1.047A3.672,3.672,0,0,0,54.7,58.354l-.9-.419a3.583,3.583,0,0,1-1.6-1.263,3.277,3.277,0,0,1-.453-1.759,2.707,2.707,0,0,1,.883-2.071,3.194,3.194,0,0,1,2.269-.823,4.121,4.121,0,0,1,2.573.6l-.449,1.325a3.5,3.5,0,0,0-.929-.427,3.717,3.717,0,0,0-1.157-.205,1.66,1.66,0,0,0-1.222.441,1.531,1.531,0,0,0-.446,1.135,1.862,1.862,0,0,0,.16.777,1.631,1.631,0,0,0,.446.586,6.658,6.658,0,0,0,1.168.662l.914.434a3.634,3.634,0,0,1,1.6,1.291,3.593,3.593,0,0,1,.46,1.907,2.722,2.722,0,0,1-1.008,2.132,3.976,3.976,0,0,1-2.7.876,4.465,4.465,0,0,1-2.535-.7" fill="#12233b"/>
      <path id="Path_4502" data-name="Path 4502" d="M65.821,55.872l-.716,1.02a2.156,2.156,0,0,0-.78-.419,3.283,3.283,0,0,0-1.1-.2,2.315,2.315,0,0,0-1.873.826,3.414,3.414,0,0,0-.693,2.265,3.061,3.061,0,0,0,.708,2.181,2.571,2.571,0,0,0,1.964.75,3.242,3.242,0,0,0,1.965-.754l.571,1.219a5.212,5.212,0,0,1-2.886.753A3.682,3.682,0,0,1,60.225,62.4a4.159,4.159,0,0,1-1.089-3.03,4.335,4.335,0,0,1,1.131-3.13,4.312,4.312,0,0,1,4.465-.913,3.872,3.872,0,0,1,1.089.548" fill="#12233b"/>
      <path id="Path_4503" data-name="Path 4503" d="M72.415,63.364V58.24a2.145,2.145,0,0,0-.449-1.439,1.575,1.575,0,0,0-1.264-.526,2.08,2.08,0,0,0-1.055.309,2.454,2.454,0,0,0-.811.719v6.061H67.39v-11.5h1.446v4.241a2.153,2.153,0,0,1,.933-.75,3.1,3.1,0,0,1,1.329-.3,2.538,2.538,0,0,1,2.029.853,3.449,3.449,0,0,1,.735,2.33v5.124Z" fill="#12233b"/>
      <path id="Path_4504" data-name="Path 4504" d="M75.376,59.268a4.459,4.459,0,0,1,1.017-3.049,3.765,3.765,0,0,1,5.394-.046,5.408,5.408,0,0,1-.023,6.2,3.772,3.772,0,0,1-5.413-.011,4.635,4.635,0,0,1-.975-3.1m1.523,0q0,3.069,2.17,3.068a1.834,1.834,0,0,0,1.588-.822,3.864,3.864,0,0,0,.574-2.246q0-3.03-2.162-3.03a1.86,1.86,0,0,0-1.58.807,3.7,3.7,0,0,0-.59,2.223" fill="#12233b"/>
      <path id="Path_4505" data-name="Path 4505" d="M83.744,59.268a4.459,4.459,0,0,1,1.017-3.049,3.765,3.765,0,0,1,5.394-.046,5.408,5.408,0,0,1-.023,6.2,3.772,3.772,0,0,1-5.413-.011,4.635,4.635,0,0,1-.975-3.1m1.523,0q0,3.069,2.17,3.068a1.834,1.834,0,0,0,1.588-.822,3.864,3.864,0,0,0,.574-2.246q0-3.03-2.162-3.03a1.86,1.86,0,0,0-1.58.807,3.7,3.7,0,0,0-.59,2.223" fill="#12233b"/>
      <path id="Path_4506" data-name="Path 4506" d="M92.759,61.057v-9.19h1.447v8.946a1.391,1.391,0,0,0,.377,1.032,1.333,1.333,0,0,0,.986.377v1.294q-2.81,0-2.81-2.459" fill="#12233b"/>
      <path id="Path_4507" data-name="Path 4507" d="M103.578,53.58v3.1h3.685v1.294h-3.685v4.02h5.056v1.371h-6.579V52.21h6.662V53.58Z" fill="#12233b"/>
      <path id="Path_4508" data-name="Path 4508" d="M116.6,63.365l-2.977-4.79c-.34,0-.878-.026-1.614-.075v4.865h-1.523V52.21q.084,0,1.184-.057t1.6-.057q4.02,0,4.02,3.2a3.027,3.027,0,0,1-.647,1.893,2.7,2.7,0,0,1-1.538,1.047l3.236,5.132Zm-4.591-9.785v3.625a7.865,7.865,0,0,0,1.066.076,3.519,3.519,0,0,0,2-.441,1.8,1.8,0,0,0,.624-1.576,1.459,1.459,0,0,0-.67-1.349,4.194,4.194,0,0,0-2.117-.41q-.228,0-.9.075" fill="#12233b"/>
      <path id="Path_4509" data-name="Path 4509" d="M121.007,59.07v4.3h-1.523V52.21q1.728-.075,2.086-.076,4.858,0,4.858,3.251,0,3.76-4.294,3.761-.26,0-1.127-.076m0-5.49V57.7c.645.05.985.076,1.02.076q2.833,0,2.833-2.231,0-2.042-3.023-2.04a6.221,6.221,0,0,0-.83.075" fill="#12233b"/>
      <path id="Path_4510" data-name="Path 4510" d="M152.909,53.58v3.1h3.685v1.294h-3.685v4.02h5.056v1.371h-6.579V52.21h6.662V53.58Z" fill="#12233b"/>
      <rect id="Rectangle_714" data-name="Rectangle 714" width="3.259" height="1.332" transform="translate(159.807 58.179)" fill="#12233b"/>
      <path id="Path_4511" data-name="Path 4511" d="M165.464,63.364V52.21h1.523v9.783h5.04v1.371Z" fill="#12233b"/>
      <path id="Path_4512" data-name="Path 4512" d="M180.114,59.428h-5.878a2.943,2.943,0,0,0,.784,2.2,2.46,2.46,0,0,0,1.782.67,3.041,3.041,0,0,0,2.071-.724l.609,1.043a2.707,2.707,0,0,1-1.028.579,5.565,5.565,0,0,1-1.934.32,3.608,3.608,0,0,1-2.611-1.043,4.091,4.091,0,0,1-1.2-3.092,4.358,4.358,0,0,1,1.226-3.235,3.56,3.56,0,0,1,2.6-1.089,3.71,3.71,0,0,1,2.734.982,3.357,3.357,0,0,1,.959,2.5,3.237,3.237,0,0,1-.114.883m-3.51-3.152a2.285,2.285,0,0,0-2.33,2.1h4.515a2.063,2.063,0,0,0-.548-1.462,2.14,2.14,0,0,0-1.637-.639" fill="#12233b"/>
      <path id="Path_4513" data-name="Path 4513" d="M186.357,62.427a3.193,3.193,0,0,1-2.657,1.089,2.285,2.285,0,0,1-1.664-.7,2.338,2.338,0,0,1-.7-1.732,2.586,2.586,0,0,1,1.085-2.1,4.331,4.331,0,0,1,2.768-.857,3.243,3.243,0,0,1,1.035.2q0-1.98-1.767-1.979a2.825,2.825,0,0,0-2.086.73l-.609-1.21A3.583,3.583,0,0,1,182.9,55.3a4.423,4.423,0,0,1,1.389-.24,2.907,2.907,0,0,1,3.381,3.373v2.924a1.493,1.493,0,0,0,.639,1.431v.724a2.717,2.717,0,0,1-1.321-.252,1.415,1.415,0,0,1-.628-.83m-.137-3.068a5.281,5.281,0,0,0-.959-.152,2.751,2.751,0,0,0-1.79.563,1.675,1.675,0,0,0-.692,1.333q0,1.271,1.5,1.271a2.462,2.462,0,0,0,1.942-1.043Z" fill="#12233b"/>
      <path id="Path_4514" data-name="Path 4514" d="M194.374,56.6a1.66,1.66,0,0,0-.952-.327,1.7,1.7,0,0,0-1.344.708,2.619,2.619,0,0,0-.574,1.7v4.675h-1.447V55.21H191.5v1.3a2.533,2.533,0,0,1,2.352-1.455,6.609,6.609,0,0,1,1.119.137Z" fill="#12233b"/>
      <path id="Path_4515" data-name="Path 4515" d="M201.022,63.364V58.621a3.151,3.151,0,0,0-.392-1.824,1.539,1.539,0,0,0-1.314-.522,2.15,2.15,0,0,0-1.035.3,2.3,2.3,0,0,0-.83.731v6.061H196V55.209h.99l.457,1.051a2.508,2.508,0,0,1,2.337-1.2q2.681,0,2.681,3.259v5.048Z" fill="#12233b"/>
      <path id="Path_4516" data-name="Path 4516" d="M205.224,63.364V56.428H204.1V55.21h2.566v8.154Zm.792-11.238a.867.867,0,0,1,.636.263.856.856,0,0,1,.262.628.895.895,0,0,1-.9.9.856.856,0,0,1-.628-.262.891.891,0,0,1,.628-1.527" fill="#12233b"/>
      <path id="Path_4517" data-name="Path 4517" d="M213.988,63.364V58.621A3.151,3.151,0,0,0,213.6,56.8a1.539,1.539,0,0,0-1.314-.522,2.15,2.15,0,0,0-1.035.3,2.3,2.3,0,0,0-.83.731v6.061H208.97V55.209h.99l.457,1.051a2.508,2.508,0,0,1,2.337-1.2q2.681,0,2.681,3.259v5.048Z" fill="#12233b"/>
      <path id="Path_4518" data-name="Path 4518" d="M217.194,65.6l.784-1.157a4.271,4.271,0,0,0,2.33.845,3.014,3.014,0,0,0,1.549-.339.979.979,0,0,0,.567-.842q0-.99-1.431-.989a5.771,5.771,0,0,0-.883.121,5.64,5.64,0,0,1-1,.122q-1.735,0-1.736-1.309a.936.936,0,0,1,.408-.731,2.517,2.517,0,0,1,1.009-.471,3.083,3.083,0,0,1-.83-4.934,3.058,3.058,0,0,1,2.2-.854,3.131,3.131,0,0,1,1.881.5l.723-.868.944.891-.868.655a3.009,3.009,0,0,1,.556,1.888,2.945,2.945,0,0,1-.769,2.07,3.029,3.029,0,0,1-2.018.959l-1.195.122a2.387,2.387,0,0,0-.571.164c-.239.1-.358.217-.358.369q0,.312.746.312a6.743,6.743,0,0,0,1.02-.118,6.755,6.755,0,0,1,1.028-.118,2.8,2.8,0,0,1,1.877.575,1.985,1.985,0,0,1,.674,1.6,2.118,2.118,0,0,1-1.009,1.821,4.413,4.413,0,0,1-2.554.693,5.417,5.417,0,0,1-1.668-.283,4.7,4.7,0,0,1-1.408-.685m3.068-9.373a1.578,1.578,0,0,0-1.23.533,1.879,1.879,0,0,0-.475,1.295,2.151,2.151,0,0,0,.46,1.413,1.531,1.531,0,0,0,1.245.559,1.452,1.452,0,0,0,1.2-.545,2.22,2.22,0,0,0,.434-1.427,1.9,1.9,0,0,0-.468-1.295,1.5,1.5,0,0,0-1.169-.533" fill="#12233b"/>
      <path id="Path_4519" data-name="Path 4519" d="M257.319,63.364,255.994,56.2l-2.436,7.317h-.381l-2.5-7.317-1.294,7.165h-1.447l2.086-11.154h.693l2.657,8.139,2.452-8.139h.685l2.262,11.154Z" fill="#12233b"/>
      <path id="Path_4520" data-name="Path 4520" d="M259.336,59.268a4.459,4.459,0,0,1,1.017-3.049,3.765,3.765,0,0,1,5.394-.046,5.408,5.408,0,0,1-.023,6.2,3.772,3.772,0,0,1-5.413-.011,4.635,4.635,0,0,1-.975-3.1m1.523,0q0,3.069,2.17,3.068a1.831,1.831,0,0,0,1.587-.822,3.856,3.856,0,0,0,.575-2.246q0-3.03-2.162-3.03a1.86,1.86,0,0,0-1.58.807,3.7,3.7,0,0,0-.59,2.223" fill="#12233b"/>
      <path id="Path_4521" data-name="Path 4521" d="M269.471,62.778l-.51.738h-.724V51.867h1.447v3.944a1.806,1.806,0,0,1,.773-.518,2.9,2.9,0,0,1,1.115-.236,3.476,3.476,0,0,1,2.715,1.158,4.213,4.213,0,0,1,1.039,2.923,4.652,4.652,0,0,1-1.043,3.21,3.6,3.6,0,0,1-2.825,1.168,3.115,3.115,0,0,1-1.138-.217,2.3,2.3,0,0,1-.849-.521m.213-5.863v4.7q0,.123.541.4a2.036,2.036,0,0,0,.822.278,2.737,2.737,0,0,0,2.117-.708,3.523,3.523,0,0,0,.639-2.376,3,3,0,0,0-.746-2.162,2.658,2.658,0,0,0-2.01-.776,1.9,1.9,0,0,0-.743.228,1.841,1.841,0,0,0-.62.411" fill="#12233b"/>
      <path id="Path_4522" data-name="Path 4522" d="M277.625,63.364V56.428h-1.119V55.21h2.566v8.154Zm.792-11.238a.867.867,0,0,1,.636.263.856.856,0,0,1,.262.628.895.895,0,0,1-.9.9.856.856,0,0,1-.628-.262.891.891,0,0,1,.628-1.527" fill="#12233b"/>
      <path id="Path_4523" data-name="Path 4523" d="M281.486,61.057v-9.19h1.446v8.946a1.391,1.391,0,0,0,.377,1.032,1.333,1.333,0,0,0,.987.377v1.294q-2.812,0-2.81-2.459" fill="#12233b"/>
      <path id="Path_4524" data-name="Path 4524" d="M292.838,59.428H286.96a2.944,2.944,0,0,0,.784,2.2,2.46,2.46,0,0,0,1.782.67,3.041,3.041,0,0,0,2.071-.724l.609,1.043a2.707,2.707,0,0,1-1.028.579,5.565,5.565,0,0,1-1.934.32,3.608,3.608,0,0,1-2.611-1.043,4.091,4.091,0,0,1-1.2-3.092,4.358,4.358,0,0,1,1.226-3.235,3.56,3.56,0,0,1,2.6-1.089,3.71,3.71,0,0,1,2.734.982,3.357,3.357,0,0,1,.959,2.5,3.238,3.238,0,0,1-.114.883m-3.51-3.152a2.285,2.285,0,0,0-2.33,2.1h4.515a2.063,2.063,0,0,0-.548-1.462,2.14,2.14,0,0,0-1.637-.639" fill="#12233b"/>
      <path id="Path_4525" data-name="Path 4525" d="M304.762,63.364l-.769-2.353h-4.15l-.822,2.353h-1.706l4.531-11.307h.4l4.2,11.307Zm-2.787-8.383-1.728,4.911h3.312Z" fill="#12233b"/>
      <path id="Path_4526" data-name="Path 4526" d="M308.957,62.915v3.647H307.51V55.21h1.447v.67a2.708,2.708,0,0,1,1.987-.822,3.439,3.439,0,0,1,2.7,1.081,5.437,5.437,0,0,1-.007,6.2,3.452,3.452,0,0,1-2.818,1.176,3.743,3.743,0,0,1-1.107-.183,1.464,1.464,0,0,1-.758-.419m0-5.946V61.72a1.288,1.288,0,0,0,.579.392,2.19,2.19,0,0,0,.86.187q2.7,0,2.7-3.046a3.335,3.335,0,0,0-.639-2.261,2.621,2.621,0,0,0-2.048-.716,1.8,1.8,0,0,0-.747.213,2.44,2.44,0,0,0-.7.48" fill="#12233b"/>
      <path id="Path_4527" data-name="Path 4527" d="M317.644,62.915v3.647H316.2V55.21h1.447v.67a2.708,2.708,0,0,1,1.987-.822,3.439,3.439,0,0,1,2.7,1.081,5.437,5.437,0,0,1-.007,6.2,3.452,3.452,0,0,1-2.818,1.176,3.743,3.743,0,0,1-1.107-.183,1.464,1.464,0,0,1-.758-.419m0-5.946V61.72a1.288,1.288,0,0,0,.579.392,2.19,2.19,0,0,0,.86.187q2.7,0,2.7-3.046a3.335,3.335,0,0,0-.639-2.261,2.621,2.621,0,0,0-2.048-.716,1.8,1.8,0,0,0-.747.213,2.44,2.44,0,0,0-.7.48" fill="#12233b"/>
      <path id="Path_4528" data-name="Path 4528" d="M139.087,54.891a3.129,3.129,0,1,1-3.156,3.129,3.141,3.141,0,0,1,3.156-3.129" fill="#12233b"/>
      <path id="Path_4529" data-name="Path 4529" d="M235.73,54.891a3.129,3.129,0,1,1-3.154,3.129,3.142,3.142,0,0,1,3.154-3.129" fill="#12233b"/>
    </g>
  </g>
</svg>
